<?xml version="1.0" encoding="iso-8859-1"?>
<!-- Generator: Adobe Illustrator 19.0.0, SVG Export Plug-In . SVG Version: 6.00 Build 0)  -->
<svg version="1.1" id="Layer_1" xmlns="http://www.w3.org/2000/svg" xmlns:xlink="http://www.w3.org/1999/xlink" x="0px" y="0px"
	 viewBox="0 0 512 512" style="enable-background:new 0 0 512 512;" xml:space="preserve">
<path style="fill:#EFF2FA;" d="M379.586,512H132.414c-14.626,0-26.483-11.857-26.483-26.483V26.483
	C105.931,11.857,117.788,0,132.414,0h247.172c14.626,0,26.483,11.857,26.483,26.483v459.034
	C406.069,500.143,394.212,512,379.586,512z"/>
<path style="fill:#FF6464;" d="M379.586,52.966c-14.603,0-26.483-11.88-26.483-26.483c0-4.875-3.953-8.828-8.828-8.828H167.724
	c-4.875,0-8.828,3.953-8.828,8.828c0,14.603-11.88,26.483-26.483,26.483c-4.875,0-8.828,3.953-8.828,8.828v388.414
	c0,4.875,3.953,8.828,8.828,8.828c14.603,0,26.483,11.88,26.483,26.483c0,4.875,3.953,8.828,8.828,8.828h176.552
	c4.875,0,8.828-3.953,8.828-8.828c0-14.603,11.88-26.483,26.483-26.483c4.875,0,8.828-3.953,8.828-8.828V61.793
	C388.414,56.917,384.462,52.966,379.586,52.966z M141.241,247.172h229.517v159.399c-36.767,4.085-66.034,33.352-70.119,70.119
	h-89.28c-4.085-36.767-33.352-66.034-70.119-70.119L141.241,247.172L141.241,247.172z M175.665,35.31h160.67
	c3.52,17.268,17.155,30.903,34.423,34.423v159.784H141.241V69.734C158.509,66.214,172.145,52.578,175.665,35.31z M141.241,442.266
	v-17.901c27.02,3.883,48.441,25.305,52.324,52.324h-17.901C172.145,459.422,158.509,445.786,141.241,442.266z M336.335,476.69
	h-17.901c3.883-27.02,25.305-48.441,52.324-52.324v17.901C353.491,445.786,339.855,459.422,336.335,476.69z"/>
<path style="fill:#515262;" d="M258.409,291.991c-1.489-0.908-3.329-0.908-4.818,0c-11.4,6.955-59.384,38.37-59.384,74.436
	c0,18.745,15.171,33.94,33.887,33.94c6.125,0,11.866-1.632,16.821-4.482c1.42-0.818,3.082,0.628,2.525,2.18
	c-2.644,7.363-6.387,14.195-11.034,20.286c-1.775,2.326-0.071,5.7,2.837,5.7h33.875c2.909,0,4.61-3.374,2.834-5.703
	c-4.595-6.023-8.305-12.767-10.942-20.035c-0.561-1.544,1.077-2.991,2.503-2.197c4.856,2.706,10.443,4.252,16.396,4.252
	c18.714,0,33.887-15.196,33.887-33.94C317.793,330.361,269.809,298.946,258.409,291.991z"/>
<g>
	<circle style="fill:#FF6464;" cx="132.414" cy="26.483" r="8.828"/>
	<circle style="fill:#FF6464;" cx="379.586" cy="26.483" r="8.828"/>
	<circle style="fill:#FF6464;" cx="132.414" cy="485.517" r="8.828"/>
	<circle style="fill:#FF6464;" cx="379.586" cy="485.517" r="8.828"/>
</g>
<path style="fill:#515262;" d="M379.586,211.862H132.414c-3.059,0-5.901-1.585-7.509-4.186c-1.609-2.603-1.754-5.853-0.386-8.589
	l15.681-31.362l-15.681-31.362c-1.368-2.737-1.222-5.986,0.386-8.589c1.609-2.602,4.45-4.186,7.509-4.186h247.172
	c3.059,0,5.901,1.585,7.509,4.186c1.609,2.603,1.754,5.853,0.386,8.589L371.8,167.724l15.681,31.362
	c1.368,2.737,1.221,5.986-0.386,8.589C385.487,210.278,382.646,211.862,379.586,211.862z M146.697,194.207h218.605l-11.267-22.535
	c-1.242-2.485-1.242-5.41,0-7.895l11.268-22.536H146.697l11.267,22.535c1.242,2.485,1.242,5.41,0,7.895L146.697,194.207z"/>
<path style="fill:#FF6464;" d="M326.621,176.552H185.379c-4.875,0-8.828-3.953-8.828-8.828s3.953-8.828,8.828-8.828h141.241
	c4.875,0,8.828,3.953,8.828,8.828S331.497,176.552,326.621,176.552z"/>
<g>
	<path style="fill:#515262;" d="M308.966,70.621H203.034c-4.875,0-8.828-3.953-8.828-8.828s3.953-8.828,8.828-8.828h105.931
		c4.875,0,8.828,3.953,8.828,8.828S313.842,70.621,308.966,70.621z"/>
	<path style="fill:#515262;" d="M344.276,105.931H167.724c-4.875,0-8.828-3.953-8.828-8.828c0-4.875,3.953-8.828,8.828-8.828
		h176.552c4.875,0,8.828,3.953,8.828,8.828C353.103,101.978,349.152,105.931,344.276,105.931z"/>
</g>
<g>
</g>
<g>
</g>
<g>
</g>
<g>
</g>
<g>
</g>
<g>
</g>
<g>
</g>
<g>
</g>
<g>
</g>
<g>
</g>
<g>
</g>
<g>
</g>
<g>
</g>
<g>
</g>
<g>
</g>
</svg>
